<svg xmlns="http://www.w3.org/2000/svg" viewBox="0 0 64 64">
  <defs>
    <linearGradient id="bg" x1="0" y1="0" x2="1" y2="1">
      <stop offset="0" stop-color="#172b44" />
      <stop offset="1" stop-color="#075d67" />
    </linearGradient>
  </defs>
  <rect x="2" y="2" width="60" height="60" rx="18" fill="url(#bg)" />
  <path d="M14 15h36a5 5 0 0 1 5 5v21a5 5 0 0 1-5 5H31l-11 8v-8h-6a5 5 0 0 1-5-5V20a5 5 0 0 1 5-5Z" fill="#e7fff8" stroke="#6be2d4" stroke-width="2" stroke-linejoin="round" />
  <text x="32" y="39" text-anchor="middle" font-size="21" font-family="system-ui, 'Apple Color Emoji', 'Segoe UI Emoji'">💬</text>
  <path d="m49 8 1.5 3.5L54 13l-3.5 1.5L49 18l-1.5-3.5L44 13l3.5-1.5L49 8Z" fill="#ffd166" />
</svg>
